<svg
  xmlns="http://www.w3.org/2000/svg"
  viewBox="0 0 841.9 595.3"
  width="100%"
  height="100%"
>
  <g fill="none" fillRule="evenodd">
    <path
      fill="#61DAFB"
      d="M420.9 148.7c-27.1 0-53.7 10.5-73.5 29.4-19.8 19.8-29.4 46.4-29.4 73.5s10.5 53.7 29.4 73.5c19.8 19.8 46.4 29.4 73.5 29.4s53.7-10.5 73.5-29.4c19.8-19.8 29.4-46.4 29.4-73.5s-10.5-53.7-29.4-73.5c-19.8-19-46.4-29.4-73.5-29.4z"
    />
    <path
      d="M505.8 236.6c3.6 3.5 7.1 7.1 10.6 10.7l7.1 7.1c15.8-22.2 29.2-45.5 39.1-69.5 0 0-33.5 1.6-85.7-7.6-16.3-2.3-31.6-5.3-45.5-9.2-20.6 20.6-38.9 48.4-52.3 78.1 4.3-2.3 9.1-4.4 13.6-6.7 16.9-6.6 36.1-12.1 57.4-14.3z"
      fill="#000"
    />
    <path
      d="M79.8 124.2c-14.2 25.4-25.6 49.7-33.5 72.4-9.5-9.5-17.4-19.7-23.2-29.9-18.7 36.2-14.8 68.4 6.9 106.5 1.5 3.2 4.1 9 4.1 9l7.4-7.4c15.1-15.1 29.5-30.3 44.4-45.4l1.8 1.8c-2.3-3.5-5-6.8-8.2-10z"
      fill="#000"
    />
    <path
      d="M3.6 405.7c-3.6-8.2-3.8-19.5-3.2-25.2 5.7 2.3 11.8 5.2 18.1 7.5 4.2 1.5 7.2 2.5 9.7 2.5 3.1 0 5.7-1 8.4-3.3 0 0 3.7-3.6 7.5-9.2-8-3.8-19.5-12.2-24.2-29.7 3.7-5 8.3-9.8 13.6-14.4-1.2-2-3.2-3.7-5.5-4.6-6.2-2.1-13.4-1.5-19.5 0-9.4 2.2-19 6.3-29.2 9.7-9.1 3.2-18.7 5.5-28.2 7.3 6.8-11.5 15.9-23.7 27.4-32.8l1.8 1.8c-2.7 2.5-4.9 5.7-7 9.1l-1.7 1.7c-3.5 3.5-7 7-10.5 10.5-8.8 8.8-14.7 19.7-16.6 31.2l.2.2c8.1 0 19.3-7.8 22.5-20.1 2.8-11.4 4.8-23 5.6-35.5-3.8 8-8.7 14.2-14.1 19.3z"
      fill="#000"
    />
    <path
      fill="#61DAFB"
      d="M420.9 82.4c-29.1 0-57.1 10.4-78.9 29.2-20.6 19.3-29.2 45.3-29.2 72.4s10.4 53.1 29.2 72.4c21.8 18.8 49.8 29.2 78.9 29.2s57.1-10.4 78.9-29.2c20.6-19.3 29.2-45.3 29.2-72.4s-10.4-53.1-29.2-72.4c-21.8-18.8-49.8-29.2-78.9-29.2z"
    />
  </g>
</svg>
